<svg width="34" height="34" viewBox="0 0 34 34" fill="none" xmlns="http://www.w3.org/2000/svg">
<path d="M0 1.0625C0 0.780707 0.111942 0.510456 0.311199 0.311199C0.510456 0.111942 0.780707 0 1.0625 0L32.9375 0C33.2193 0 33.4895 0.111942 33.6888 0.311199C33.8881 0.510456 34 0.780707 34 1.0625V7.4375C34 7.71929 33.8881 7.98954 33.6888 8.1888C33.4895 8.38806 33.2193 8.5 32.9375 8.5H29.75V12.75H32.9375C33.2193 12.75 33.4895 12.8619 33.6888 13.0612C33.8881 13.2605 34 13.5307 34 13.8125V20.1875C34 20.4693 33.8881 20.7395 33.6888 20.9388C33.4895 21.1381 33.2193 21.25 32.9375 21.25H29.75V25.5H32.9375C33.2193 25.5 33.4895 25.6119 33.6888 25.8112C33.8881 26.0105 34 26.2807 34 26.5625V32.9375C34 33.2193 33.8881 33.4895 33.6888 33.6888C33.4895 33.8881 33.2193 34 32.9375 34H1.0625C0.780707 34 0.510456 33.8881 0.311199 33.6888C0.111942 33.4895 0 33.2193 0 32.9375V26.5625C0 26.2807 0.111942 26.0105 0.311199 25.8112C0.510456 25.6119 0.780707 25.5 1.0625 25.5H4.25V21.25H1.0625C0.780707 21.25 0.510456 21.1381 0.311199 20.9388C0.111942 20.7395 0 20.4693 0 20.1875V13.8125C0 13.5307 0.111942 13.2605 0.311199 13.0612C0.510456 12.8619 0.780707 12.75 1.0625 12.75H4.25V8.5H1.0625C0.780707 8.5 0.510456 8.38806 0.311199 8.1888C0.111942 7.98954 0 7.71929 0 7.4375V1.0625ZM6.375 8.5V12.75H15.9375V8.5H6.375ZM18.0625 8.5V12.75H27.625V8.5H18.0625ZM6.375 21.25V25.5H15.9375V21.25H6.375ZM18.0625 21.25V25.5H27.625V21.25H18.0625ZM2.125 2.125V6.375H9.5625V2.125H2.125ZM11.6875 2.125V6.375H22.3125V2.125H11.6875ZM24.4375 2.125V6.375H31.875V2.125H24.4375ZM2.125 14.875V19.125H9.5625V14.875H2.125ZM11.6875 14.875V19.125H22.3125V14.875H11.6875ZM24.4375 14.875V19.125H31.875V14.875H24.4375ZM2.125 27.625V31.875H9.5625V27.625H2.125ZM11.6875 27.625V31.875H22.3125V27.625H11.6875ZM24.4375 27.625V31.875H31.875V27.625H24.4375Z" fill="#2C6E7C"/>
</svg>
