<svg width="50" height="50" viewBox="0 0 50 50" fill="none" xmlns="http://www.w3.org/2000/svg">
<path d="M45.2518 26.0725L36.1562 21.8745V9.84629C36.1521 9.59394 36.0756 9.34811 35.936 9.13812C35.7964 8.92812 35.5994 8.76281 35.3687 8.66189L25.525 4.1217C25.3522 4.04153 25.1641 4 24.9737 4C24.7834 4 24.5953 4.04153 24.4225 4.1217L14.5787 8.66189C14.3509 8.76761 14.1581 8.93662 14.0232 9.14888C13.8883 9.36114 13.8169 9.60774 13.8175 9.85945V21.8877L4.76125 26.0725C4.53343 26.1783 4.34062 26.3473 4.2057 26.5595C4.07077 26.7718 3.99938 27.0184 4 27.2701V40.1406C3.99938 40.3923 4.07077 40.6389 4.2057 40.8511C4.34062 41.0634 4.53343 41.2324 4.76125 41.3381L14.605 45.8783C14.7778 45.9585 14.9659 46 15.1562 46C15.3466 46 15.5347 45.9585 15.7075 45.8783L25 41.5882L34.2925 45.8783C34.4653 45.9585 34.6534 46 34.8437 46C35.0341 46 35.2222 45.9585 35.395 45.8783L45.2387 41.3381C45.4665 41.2324 45.6594 41.0634 45.7943 40.8511C45.9292 40.6389 46.0006 40.3923 46 40.1406V27.2701C46.0018 27.0198 45.9323 26.7742 45.7998 26.5621C45.6673 26.35 45.4772 26.1802 45.2518 26.0725ZM41.5637 27.2701L34.8569 30.3364L28.15 27.2701L34.8569 24.1775L41.5637 27.2701ZM25 6.75369L31.7069 9.84629L25 12.9389L18.3062 9.84629L25 6.75369ZM15.1562 24.1643L21.8631 27.2569L15.1562 30.3364L8.44938 27.2701L15.1562 24.1643ZM23.6875 39.2852L15.1562 43.2331L6.625 39.2852V29.3231L14.605 32.9684C14.7742 33.0446 14.9576 33.0841 15.1431 33.0841C15.3286 33.0841 15.512 33.0446 15.6812 32.9684L23.6612 29.2836L23.6875 39.2852ZM16.4687 21.8745V11.9124L24.4487 15.5972C24.6215 15.6774 24.8096 15.7189 25 15.7189C25.1904 15.7189 25.3785 15.6774 25.5512 15.5972L33.5312 11.9124V21.8877L25 25.8357L16.4687 21.8745ZM43.3881 39.2983L34.8569 43.2463L26.3125 39.2983V29.3099L34.3056 32.9684C34.473 33.0427 34.6541 33.0811 34.8372 33.0811C35.0203 33.0811 35.2013 33.0427 35.3687 32.9684L43.3487 29.2836L43.3881 39.2983Z" fill="#2C6E7C"/>
</svg>
