<svg width="77" height="77" viewBox="0 0 77 77" fill="none" xmlns="http://www.w3.org/2000/svg">
<path d="M38.5 14.3733C36.076 14.3733 33.7065 15.0921 31.691 16.4388C29.6755 17.7855 28.1047 19.6996 27.1771 21.939C26.2495 24.1785 26.0067 26.6427 26.4796 29.0201C26.9525 31.3975 28.1198 33.5813 29.8338 35.2953C31.5478 37.0093 33.7316 38.1766 36.109 38.6495C38.4864 39.1224 40.9506 38.8797 43.1901 37.952C45.4295 37.0244 47.3436 35.4536 48.6903 33.4381C50.037 31.4226 50.7558 29.0531 50.7558 26.6291C50.7558 23.3787 49.4646 20.2614 47.1662 17.9629C44.8677 15.6645 41.7504 14.3733 38.5 14.3733V14.3733ZM38.5 34.6072C36.9221 34.6072 35.3796 34.1393 34.0676 33.2626C32.7556 32.386 31.7331 31.14 31.1292 29.6822C30.5254 28.2244 30.3674 26.6203 30.6752 25.0727C30.9831 23.5251 31.7429 22.1035 32.8586 20.9878C33.9744 19.872 35.3959 19.1122 36.9435 18.8044C38.4911 18.4965 40.0953 18.6545 41.5531 19.2584C43.0109 19.8622 44.2568 20.8848 45.1335 22.1968C46.0101 23.5087 46.478 25.0512 46.478 26.6291C46.4724 28.7413 45.6293 30.7651 44.1338 32.2566C42.6382 33.7482 40.6122 34.5858 38.5 34.5858V34.6072Z" fill="#2C6E7C"/>
<path d="M38.4998 4.27777C31.8376 4.28334 25.4483 6.92504 20.7274 11.6259C16.0065 16.3268 13.3376 22.7048 13.3037 29.3669C13.3037 39.3555 18.9076 47.7186 23.0143 53.8144L23.7629 54.9267C27.8488 60.8484 32.232 66.5595 36.8957 72.0378L38.5212 73.9414L40.1468 72.0378C44.8099 66.559 49.1931 60.848 53.2795 54.9267L54.0282 53.793C58.1134 47.6972 63.7173 39.3555 63.7173 29.3669C63.6834 22.7011 61.0116 16.3199 56.2861 11.6184C51.5605 6.9169 45.1657 4.27768 38.4998 4.27777V4.27777ZM50.4562 51.3333L49.6862 52.4669C46.0073 57.9853 41.1307 64.1667 38.4998 67.2253C35.9759 64.1667 30.9923 57.9853 27.3134 52.4669L26.5648 51.3333C22.779 45.6867 17.5815 37.9653 17.5815 29.2814C17.5815 26.5343 18.1226 23.8142 19.1738 21.2763C20.225 18.7384 21.7659 16.4323 23.7083 14.4899C25.6508 12.5474 27.9568 11.0066 30.4947 9.95536C33.0327 8.90412 35.7528 8.36305 38.4998 8.36305C41.2469 8.36305 43.967 8.90412 46.5049 9.95536C49.0429 11.0066 51.3489 12.5474 53.2913 14.4899C55.2338 16.4323 56.7746 18.7384 57.8258 21.2763C58.8771 23.8142 59.4182 26.5343 59.4182 29.2814C59.4182 38.0508 54.242 45.7722 50.4562 51.3333V51.3333Z" fill="#2C6E7C"/>
</svg>
