<svg width="60" height="60" viewBox="0 0 60 60" fill="none" xmlns="http://www.w3.org/2000/svg">
<path d="M27.5 14.75C28.0523 14.75 28.5 14.3023 28.5 13.75V6.25C28.5 6.12167 28.5407 6.07054 28.5559 6.0552C28.5689 6.04201 28.6162 6 28.75 6H31.25C31.4005 6 31.4433 6.04464 31.4483 6.04981L31.4485 6.05006C31.4565 6.05829 31.5 6.10752 31.5 6.25V13.75C31.5 14.3023 31.9477 14.75 32.5 14.75H35C35.5523 14.75 36 14.3023 36 13.75V9.22669C36.3425 9.4763 36.7196 9.79012 37.0969 10.1766C38.3436 11.4538 39.625 13.5544 39.625 16.875C39.625 17.3422 39.9482 17.7457 40.4011 17.8496C40.4017 17.8498 40.4022 17.85 40.4029 17.8502C40.4143 17.8537 40.4429 17.8634 40.4834 17.8819C40.5642 17.919 40.6896 17.9903 40.8236 18.1188C40.9795 18.2682 41.1873 18.5335 41.3327 19H18.6217C18.7517 18.5353 18.9601 18.276 19.1172 18.1304C19.254 18.0036 19.3876 17.9305 19.4796 17.8906C19.5254 17.8708 19.5592 17.8599 19.5751 17.8553C19.5778 17.8545 19.58 17.8539 19.5816 17.8534C20.043 17.7562 20.375 17.3487 20.375 16.875C20.375 13.5544 21.6564 11.4538 22.9031 10.1766C23.2804 9.79012 23.6575 9.4763 24 9.22669V13.75C24 14.3023 24.4477 14.75 25 14.75H27.5ZM11 47.5C11 45.3201 12.7914 43.0786 16.3035 41.3226C19.756 39.5963 24.5965 38.5 30 38.5C35.4035 38.5 40.244 39.5963 43.6965 41.3226C47.2086 43.0786 49 45.3201 49 47.5V51.5H11V47.5ZM23.636 28.864C22.1856 27.4135 21.2814 25.519 21.0557 23.5H38.9443C38.7186 25.519 37.8144 27.4135 36.364 28.864C34.6761 30.5518 32.3869 31.5 30 31.5C27.6131 31.5 25.3239 30.5518 23.636 28.864Z" stroke="#2C6E7C" stroke-width="2" stroke-linejoin="round"/>
</svg>
