<svg width="51" height="70" viewBox="0 0 51 70" fill="none" xmlns="http://www.w3.org/2000/svg">
<path d="M25.4998 0.277771C18.8376 0.283335 12.4483 2.92504 7.72738 7.62591C3.00648 12.3268 0.337613 18.7048 0.303711 25.3669C0.303711 35.3555 5.9076 43.7186 10.0143 49.8144L10.7629 50.9267C14.8488 56.8484 19.232 62.5595 23.8957 68.0378L25.5212 69.9414L27.1468 68.0378C31.8099 62.559 36.1931 56.848 40.2795 50.9267L41.0282 49.793C45.1134 43.6972 50.7173 35.3555 50.7173 25.3669C50.6834 18.7011 48.0116 12.3199 43.2861 7.61837C38.5605 2.9169 32.1657 0.277685 25.4998 0.277771ZM37.4562 47.3333L36.6862 48.4669C33.0073 53.9853 28.1307 60.1667 25.4998 63.2253C22.9759 60.1667 17.9923 53.9853 14.3134 48.4669L13.5648 47.3333C9.77899 41.6867 4.58149 33.9653 4.58149 25.2814C4.58149 22.5343 5.12256 19.8142 6.1738 17.2763C7.22505 14.7384 8.76588 12.4323 10.7083 10.4899C12.6508 8.54744 14.9568 7.00661 17.4947 5.95536C20.0327 4.90412 22.7528 4.36305 25.4998 4.36305C28.2469 4.36305 30.967 4.90412 33.5049 5.95536C36.0429 7.00661 38.3489 8.54744 40.2913 10.4899C42.2338 12.4323 43.7746 14.7384 44.8258 17.2763C45.8771 19.8142 46.4182 22.5343 46.4182 25.2814C46.4182 34.0508 41.2421 41.7722 37.4562 47.3333Z" fill="#2C6E7C"/>
</svg>
